<?xml version="1.0" encoding="UTF-8" ?>
<svg version="1.1" width="16" height="16" xmlns="http://www.w3.org/2000/svg" shape-rendering="crispEdges">
<rect x="8" y="0" width="1" height="1" fill="#454A5E" />
<rect x="9" y="0" width="1" height="1" fill="#3F4456" />
<rect x="10" y="0" width="1" height="1" fill="#454A5E" />
<rect x="11" y="0" width="1" height="1" fill="#4C5168" />
<rect x="12" y="0" width="1" height="1" fill="#4C5168" />
<rect x="13" y="0" width="1" height="1" fill="#4C5168" />
<rect x="7" y="1" width="1" height="1" fill="#454A5E" />
<rect x="8" y="1" width="1" height="1" fill="#3F4456" />
<rect x="13" y="1" width="1" height="1" fill="#4C5168" />
<rect x="14" y="1" width="1" height="1" fill="#4C5168" />
<rect x="6" y="2" width="1" height="1" fill="#454A5E" />
<rect x="7" y="2" width="1" height="1" fill="#454A5E" />
<rect x="14" y="2" width="1" height="1" fill="#4C5168" />
<rect x="15" y="2" width="1" height="1" fill="#4C5168" />
<rect x="6" y="3" width="1" height="1" fill="#3F4456" />
<rect x="15" y="3" width="1" height="1" fill="#4C5168" />
<rect x="6" y="4" width="1" height="1" fill="#3F4456" />
<rect x="13" y="4" width="1" height="1" fill="#C4C7D2" />
<rect x="15" y="4" width="1" height="1" fill="#5B6283" />
<rect x="6" y="5" width="1" height="1" fill="#3F4456" />
<rect x="13" y="5" width="1" height="1" fill="#C4C7D2" />
<rect x="15" y="5" width="1" height="1" fill="#5B6283" />
<rect x="6" y="6" width="1" height="1" fill="#4C5168" />
<rect x="12" y="6" width="1" height="1" fill="#C4C7D2" />
<rect x="15" y="6" width="1" height="1" fill="#565C76" />
<rect x="6" y="7" width="1" height="1" fill="#4C5168" />
<rect x="7" y="7" width="1" height="1" fill="#4C5168" />
<rect x="14" y="7" width="1" height="1" fill="#565C76" />
<rect x="15" y="7" width="1" height="1" fill="#525874" />
<rect x="7" y="8" width="1" height="1" fill="#4C5168" />
<rect x="8" y="8" width="1" height="1" fill="#4C5168" />
<rect x="13" y="8" width="1" height="1" fill="#5B6283" />
<rect x="14" y="8" width="1" height="1" fill="#5B6283" />
<rect x="4" y="9" width="1" height="1" fill="#78797C" />
<rect x="6" y="9" width="1" height="1" fill="#4C5168" />
<rect x="8" y="9" width="1" height="1" fill="#4C5168" />
<rect x="9" y="9" width="1" height="1" fill="#4C5168" />
<rect x="10" y="9" width="1" height="1" fill="#4C5168" />
<rect x="11" y="9" width="1" height="1" fill="#565C76" />
<rect x="12" y="9" width="1" height="1" fill="#525874" />
<rect x="13" y="9" width="1" height="1" fill="#565C76" />
<rect x="3" y="10" width="1" height="1" fill="#78797C" />
<rect x="4" y="10" width="1" height="1" fill="#7D7F87" />
<rect x="5" y="10" width="1" height="1" fill="#888A93" />
<rect x="2" y="11" width="1" height="1" fill="#44495E" />
<rect x="3" y="11" width="1" height="1" fill="#4C5168" />
<rect x="4" y="11" width="1" height="1" fill="#9698A1" />
<rect x="5" y="11" width="1" height="1" fill="#888A93" />
<rect x="6" y="11" width="1" height="1" fill="#9698A1" />
<rect x="1" y="12" width="1" height="1" fill="#44495E" />
<rect x="2" y="12" width="1" height="1" fill="#44495E" />
<rect x="3" y="12" width="1" height="1" fill="#4C5168" />
<rect x="4" y="12" width="1" height="1" fill="#525874" />
<rect x="5" y="12" width="1" height="1" fill="#9698A1" />
<rect x="0" y="13" width="1" height="1" fill="#44495E" />
<rect x="1" y="13" width="1" height="1" fill="#454B64" />
<rect x="2" y="13" width="1" height="1" fill="#4C5168" />
<rect x="3" y="13" width="1" height="1" fill="#4C5168" />
<rect x="4" y="13" width="1" height="1" fill="#525874" />
<rect x="0" y="14" width="1" height="1" fill="#44495E" />
<rect x="1" y="14" width="1" height="1" fill="#4C5168" />
<rect x="2" y="14" width="1" height="1" fill="#4C5168" />
<rect x="3" y="14" width="1" height="1" fill="#525874" />
<rect x="0" y="15" width="1" height="1" fill="#525874" />
<rect x="1" y="15" width="1" height="1" fill="#525874" />
<rect x="2" y="15" width="1" height="1" fill="#525874" />
</svg>